<svg style="display:none">
  <symbol viewBox="0 0 100 100" fill="none" id="Logo" xmlns="http://www.w3.org/2000/svg">
    <path fill-rule="evenodd" clip-rule="evenodd"
      d="M42.622 14.056c4.075-4.075 10.681-4.075 14.756 0l5.651 5.651a11.634 11.634 0 0 1 7.688-2.888c6.448 0 11.676 5.228 11.676 11.677 0 2.943-1.09 5.634-2.888 7.687l6.439 6.439c4.075 4.075 4.075 10.681 0 14.756L57.378 85.944c-4.075 4.075-10.681 4.075-14.756 0L14.056 57.378c-4.052-4.052-4.075-10.608-.068-14.688 1.315-3.033 3.266-7.322 5.13-10.754.939-1.728 1.867-3.262 2.69-4.31.409-.52.814-.95 1.204-1.22.373-.26.872-.465 1.361-.22.772.386 1.219 1.074 1.586 1.807.14.28.278.584.416.893l.13.288c.102.223.207.45.32.679l15.797-15.797ZM27.319 30.773c.936 1.677 1.921 3.427 2.82 4.654.484.661.908 1.119 1.25 1.343.168.11.275.136.332.137.036.001.08-.005.146-.072.41-.41.73-.935 1.01-1.514.19-.393.35-.782.507-1.168.08-.193.158-.385.24-.577.23-.537.495-1.089.863-1.456.193-.193.43-.352.718-.425.29-.074.593-.05.9.052.16.053.297.163.394.25.11.1.229.226.353.37.25.29.55.686.893 1.169.686.966 1.564 2.312 2.568 3.918 1.874 2.994 4.203 6.911 6.585 11.003a77.104 77.104 0 0 1 1.74-4.03c.807-1.729 1.71-3.462 2.581-4.77.435-.653.875-1.219 1.306-1.627.41-.39.9-.72 1.428-.72.898 0 1.528.674 1.983 1.397.457.725.847 1.672 1.217 2.57l.027.067c.389.944.757 1.828 1.177 2.48.431.67.815.936 1.184.936a.472.472 0 0 0 .281-.072c.06-.04.122-.11.183-.234.134-.268.203-.65.284-1.14l.007-.04c.072-.435.16-.964.369-1.381.113-.226.274-.447.51-.61.242-.166.528-.249.85-.249.275 0 .525.106.738.245.214.138.42.33.62.55.397.439.818 1.053 1.257 1.773.667 1.091 1.413 2.487 2.222 4l.793 1.48c1.77 3.277 3.805 6.835 6.056 9.265.083-.166.177-.376.29-.64l.137-.32c.265-.627.612-1.443 1.099-2.416.33-.662.708-1.15 1.128-1.444.433-.304.918-.4 1.384-.247.445.147.79.496 1.037.915.248.424.418.958.498 1.553a8.14 8.14 0 0 0 .772 2.419c.405.802.961 1.537 1.69 1.995l3.49-3.49a9.434 9.434 0 0 0 0-13.343l-6.421-6.422a11.64 11.64 0 0 1-8.098 3.265c-6.449 0-11.676-5.228-11.676-11.676 0-3.145 1.243-6 3.264-8.099l-5.634-5.634a9.434 9.434 0 0 0-13.342 0l-16.01 16.01Zm53.545 29.992c-.756-.58-1.308-1.371-1.7-2.148a9.131 9.131 0 0 1-.871-2.735c-.067-.496-.203-.896-.37-1.181-.17-.29-.349-.425-.488-.471-.118-.04-.277-.038-.496.116-.234.164-.518.492-.808 1.072-.472.943-.805 1.73-1.071 2.355l-.14.328c-.142.33-.271.622-.397.85a3.298 3.298 0 0 1-.08.138c1.089 1.028 2.193 1.738 3.307 2.026.993.256 2.026.185 3.114-.35Zm-1.14 1.419a5.266 5.266 0 0 1-2.224-.101c-1.47-.38-2.837-1.345-4.094-2.61-2.374-2.389-4.489-5.984-6.283-9.276-.065.1-.134.212-.211.336l-.083.133c-.323.52-.748 1.178-1.347 1.777-.408.409-.902.587-1.41.538-.49-.047-.937-.299-1.302-.64-.727-.677-1.246-1.815-1.246-3.022 0-.31-.083-.702-.27-.945a.567.567 0 0 0-.305-.215c-.127-.035-.326-.042-.63.059-.308.103-.492.3-.634.578-.114.221-.183.447-.26.704-.034.108-.068.221-.109.342-.112.337-.3.831-.771 1.059-.486.233-1.066.096-1.712-.227-.684-.342-1.132-.738-1.443-1.14a4.358 4.358 0 0 1-.56-1.008l-.018-.042c-.06-.141-.1-.229-.14-.293a.24.24 0 0 0-.048-.063c-.012-.005-.126-.04-.513.09-.525.175-1.08.084-1.584-.108-.508-.194-1.018-.511-1.49-.868a13.74 13.74 0 0 1-1.818-1.686 76.21 76.21 0 0 0-1.68 4.006 1125.05 1125.05 0 0 1 8.706 15.312c1.517 2.422 3.673 4.612 6.495 5.555 2.794.933 6.335.673 10.71-1.971l6.274-6.274Zm-8.574 8.574c-3.354 1.402-6.262 1.443-8.727.62-3.124-1.044-5.444-3.444-7.032-5.984l-.006-.011-.006-.01a1124.88 1124.88 0 0 0-6.68-11.8c-.073.02-.165.058-.278.124-.235.138-.498.36-.77.638a10.858 10.858 0 0 0-1.345 1.743l-.001.002c-.638 1.02-1.267 1.658-1.913 1.907a1.61 1.61 0 0 1-.992.07 1.87 1.87 0 0 1-.81-.464c-.442-.414-.773-1.03-1.016-1.647a10.431 10.431 0 0 1-.527-1.883c-.735-2.685-1.638-4.458-2.54-5.476-.9-1.013-1.728-1.215-2.402-.99l-.019.006-.018.005c-.448.112-.845.452-1.217 1.013-.371.56-.678 1.277-.969 2.041-.081.213-.162.432-.243.65-.2.542-.4 1.085-.61 1.545a5.348 5.348 0 0 1-.5.9c-.185.258-.414.497-.705.643-.399.199-.8.26-1.19.187-.384-.071-.718-.263-1.005-.504-.561-.472-1.025-1.204-1.415-1.906-.18-.323-.351-.655-.513-.967l-.05-.096a20.871 20.871 0 0 0-.499-.925 3.461 3.461 0 0 0-.415-.597.542.542 0 0 0-.125-.106c-.32.008-.548.203-.774.654a6.923 6.923 0 0 0-.306.76l-.02.054c-.087.245-.183.515-.294.738l-.01.021-.013.02c-.536.863-1.211 1.315-2.01 1.212-.715-.093-1.36-.62-1.91-1.214-.568-.613-1.124-1.398-1.643-2.165l-.417-.621c-.37-.555-.72-1.078-1.054-1.523a23.509 23.509 0 0 0-2.164-2.477c-.576-.572-1.106-1.033-1.513-1.325a9.435 9.435 0 0 0 .28 13.051l28.565 28.566a9.434 9.434 0 0 0 13.342 0L71.15 70.758ZM15.037 42.786c.487.345 1.072.86 1.665 1.45a24.5 24.5 0 0 1 2.26 2.587c.35.468.723 1.025 1.099 1.588.133.199.266.398.4.595.518.766 1.036 1.494 1.547 2.045.529.57.965.858 1.305.902.252.032.598-.058 1.02-.728.08-.164.154-.373.247-.632l.01-.03a7.89 7.89 0 0 1 .354-.87c.287-.574.78-1.208 1.689-1.208.367 0 .646.225.832.422.197.209.38.486.55.776.173.294.348.63.524.971l.05.096c.162.313.327.632.499.942.386.695.776 1.282 1.184 1.625.199.167.379.256.544.287.157.03.338.013.56-.099.091-.045.207-.144.341-.332.134-.185.266-.43.402-.73.194-.425.373-.912.568-1.438.083-.227.17-.46.26-.7.294-.77.633-1.578 1.07-2.237.434-.654 1.005-1.223 1.79-1.426 1.182-.385 2.396.097 3.447 1.282 1.05 1.184 2.008 3.13 2.763 5.897l.006.02.003.022c.1.544.26 1.161.478 1.717.223.565.487 1.019.77 1.283a.88.88 0 0 0 .373.225c.106.027.23.026.385-.034.337-.13.82-.537 1.424-1.503.323-.523.873-1.294 1.48-1.915.303-.31.637-.6.98-.802.087-.05.18-.099.278-.14a904.13 904.13 0 0 0-1.64-2.837c-2.559-4.41-5.087-8.675-7.089-11.873-1-1.6-1.866-2.927-2.536-3.87-.335-.472-.615-.84-.835-1.094a3.18 3.18 0 0 0-.264-.279.721.721 0 0 0-.064-.053.572.572 0 0 0-.315-.024.564.564 0 0 0-.257.163c-.215.214-.416.594-.65 1.143-.07.162-.142.338-.218.523-.165.402-.346.844-.549 1.264-.302.624-.68 1.263-1.202 1.785a1.18 1.18 0 0 1-.875.365c-.314-.006-.605-.134-.86-.3-.5-.329-1.012-.912-1.508-1.59-.971-1.326-2.024-3.21-2.978-4.92l-.092-.166a17.916 17.916 0 0 1-.667-1.343 85.902 85.902 0 0 1-.138-.306c-.137-.304-.262-.581-.392-.84-.345-.689-.67-1.127-1.14-1.362a.023.023 0 0 0-.01-.003.159.159 0 0 0-.048.005.866.866 0 0 0-.284.144c-.268.186-.6.525-.988 1.018-.77.98-1.666 2.453-2.598 4.17-1.783 3.281-3.653 7.37-4.96 10.372Zm34.641 1.778c.49.576 1.207 1.31 1.96 1.88.433.326.858.584 1.245.731.391.15.691.167.911.094.488-.163.947-.229 1.33-.007.189.11.313.263.4.405.084.137.151.292.207.423l.011.025c.115.269.229.534.44.807.213.277.541.58 1.099.858.596.298.792.238.83.22.052-.025.136-.113.257-.474.023-.07.048-.151.075-.24.085-.282.194-.64.352-.946.226-.44.586-.863 1.208-1.07.442-.148.848-.175 1.21-.075.366.1.64.317.835.571.373.486.476 1.13.476 1.553 0 .943.413 1.811.928 2.292.256.238.507.354.716.374.19.019.395-.036.607-.249.512-.512.886-1.086 1.206-1.6l.077-.123c.128-.206.254-.409.372-.578.05-.07.104-.144.164-.215l-.626-1.168c-.805-1.506-1.53-2.864-2.181-3.93-.43-.704-.812-1.254-1.146-1.622a2.29 2.29 0 0 0-.423-.383c-.116-.075-.177-.083-.194-.083a.473.473 0 0 0-.281.072.594.594 0 0 0-.184.234c-.133.268-.202.65-.283 1.14l-.007.04c-.073.435-.16.964-.37 1.381a1.583 1.583 0 0 1-.51.61 1.466 1.466 0 0 1-.848.249c-.912 0-1.556-.666-2.025-1.394-.48-.744-.882-1.722-1.26-2.641l-.006-.013c-.387-.94-.75-1.821-1.16-2.472-.425-.675-.795-.93-1.138-.93-.124 0-.368.093-.74.445-.352.335-.744.831-1.16 1.456-.785 1.177-1.61 2.741-2.374 4.353ZM70.717 17.82a10.638 10.638 0 0 0-7.359 2.942 10.644 10.644 0 0 0-3.317 7.735c0 5.896 4.78 10.676 10.676 10.676 3.044 0 5.79-1.273 7.735-3.318a10.638 10.638 0 0 0 2.94-7.358c0-5.897-4.779-10.677-10.675-10.677Z"
      fill="#000" />
  </symbol>
</svg>